<?xml version="1.0" encoding="UTF-8" standalone="no"?>
<!-- Created with Inkscape (http://www.inkscape.org/) -->

<svg
   width="297mm"
   height="210mm"
   viewBox="0 0 297 210"
   version="1.1"
   id="svg1006"
   inkscape:version="1.1.1 (3bf5ae0d25, 2021-09-20)"
   sodipodi:docname="logo-dark.svg"
   xmlns:inkscape="http://www.inkscape.org/namespaces/inkscape"
   xmlns:sodipodi="http://sodipodi.sourceforge.net/DTD/sodipodi-0.dtd"
   xmlns="http://www.w3.org/2000/svg"
   xmlns:svg="http://www.w3.org/2000/svg">
  <sodipodi:namedview
     id="namedview1008"
     pagecolor="#ffffff"
     bordercolor="#666666"
     borderopacity="1.0"
     inkscape:pageshadow="2"
     inkscape:pageopacity="0.0"
     inkscape:pagecheckerboard="0"
     inkscape:document-units="mm"
     showgrid="false"
     inkscape:showpageshadow="false"
     showborder="false"
     inkscape:zoom="0.46502525"
     inkscape:cx="315.03666"
     inkscape:cy="381.6997"
     inkscape:window-width="1280"
     inkscape:window-height="738"
     inkscape:window-x="0"
     inkscape:window-y="31"
     inkscape:window-maximized="1"
     inkscape:current-layer="g906" />
  <defs
     id="defs1003" />
  <g
     inkscape:label="Layer 1"
     inkscape:groupmode="layer"
     id="layer1">
    <g
       id="g906"
       transform="matrix(2.819335,0,0,2.819335,-328.9074,-133.70234)"
       inkscape:export-filename="/home/nikandros/Projects/Web/vcard4_docs/static/img/g906.png"
       inkscape:export-xdpi="25.4"
       inkscape:export-ydpi="25.4">
      <path
         d="m 134.12631,81.808766 c -0.70556,0.352778 -1.905,0.352778 -2.75167,0 -0.77611,-0.352778 -1.69333,-0.211667 -2.18722,-0.211667 v 1.199445 c 0.70555,0 2.96333,-0.564445 2.39889,1.199445 l -4.72723,23.424461 -3.81,-23.071683 c -0.14111,-1.058334 0.14111,-1.622778 1.69333,-1.622778 v -1.12889 c 0,0 -1.62277,-0.141111 -2.32833,0.211667 -0.70556,0.352778 -1.76389,0.352778 -2.61056,0 -0.77611,-0.352778 -1.55222,-0.211667 -2.04611,-0.211667 v 1.199445 c 0.70556,0 1.12889,-0.282222 1.69333,1.270001 0,0.07056 0,0.211667 0.0706,0.352778 0,0 0,0 0,0 0.635,3.739447 3.88056,24.130017 3.88056,24.130017 h 5.00945 c 0,0 4.02167,-21.801682 4.72722,-24.412239 0.70556,-1.693335 1.62278,-1.411112 3.175,-1.411112 v -1.12889 c 0,0 -1.48166,-0.141111 -2.18722,0.211667 z"
         style="font-size:70.5556px;line-height:1.25;font-family:Ayres;-inkscape-font-specification:Ayres;word-spacing:0px;fill:#c83737;stroke:#ffffff;stroke-width:0.79375;stroke-miterlimit:4;stroke-dasharray:none"
         id="path894" />
      <path
         d="m 148.51945,100.36489 c 0,0 0.28222,3.66889 -1.55223,5.715 -1.05833,1.19945 -2.96333,1.19945 -3.95111,1.12889 -1.34056,-0.14111 -2.46945,-1.19944 -2.54,-2.54 0,-0.28222 0,-1.19944 0,-1.19944 V 85.830435 c 0,-0.352778 0,-0.776112 0.0705,-1.199445 0.14112,-0.705556 0.42334,-1.270001 0.77612,-1.76389 0.77611,-0.776112 1.69333,-0.776112 2.18722,-0.776112 0.49389,0 1.76389,0.211667 2.54,0.846667 1.19945,0.987779 0.84667,1.552224 0.28222,2.116668 -0.42333,0.352779 -0.91722,0.49389 -1.19944,1.340557 -0.49389,1.76389 1.12889,2.963335 2.54,2.89278 2.04611,-0.141112 2.82222,-1.905002 2.46945,-3.175002 -0.635,-1.905002 -2.54,-4.868337 -6.70279,-4.868337 0,0 -0.21166,0 -0.21166,0 -1.62278,0 -2.82223,0.423334 -3.73945,1.12889 -2.68111,1.834445 -2.82222,5.29167 -2.82222,5.29167 v 14.393339 c 0,0.35278 0,2.04612 0.28222,2.61056 0.56444,1.905 2.18722,4.30389 6.35,4.30389 0,0 0.0706,0 0.14111,0 0,0 0.0706,0 0.14112,0 1.55222,0 3.66889,-0.84666 5.00944,-2.82222 1.34056,-1.97556 1.19945,-5.92667 1.19945,-5.92667 -0.21167,0 -1.05834,0.0705 -1.27,0.14111 z"
         style="font-size:70.5556px;line-height:1.25;font-family:Ayres;-inkscape-font-specification:Ayres;word-spacing:0px;fill:#6f916f;stroke:#ffffff;stroke-width:0.79375;stroke-miterlimit:4;stroke-dasharray:none"
         id="path896" />
      <path
         d="m 169.47436,106.57378 c 0,0 -0.35277,1.05834 -1.48166,0.91723 -1.12889,-0.14112 -1.05834,-1.48167 -1.05834,-1.48167 v -7.196674 -0.635 -3.810003 -5.080003 c 0,-0.352778 -0.14111,-2.822224 -0.35278,-3.386669 -0.635,-1.905002 -2.11666,-4.515559 -6.27944,-4.515559 -1.41112,0 -2.82223,0.352778 -3.95112,1.270001 -2.54,1.975557 -3.175,3.951114 -2.96333,5.362226 0.14111,0.776111 1.19944,1.905001 2.25778,1.552223 0.91722,-0.352778 1.34055,-1.058334 1.41111,-1.905001 0,-0.635001 -0.42334,-1.481668 -0.635,-1.975557 -0.21167,-0.423334 0.0705,-1.411112 0.35278,-1.834446 0.42333,-0.776111 1.62277,-1.552223 3.45722,-1.552223 0.98778,0 2.89278,0.917223 2.89278,2.751668 0.0706,0.282223 0,1.199446 0,1.199446 v 3.316113 c -1.05833,1.270001 -1.905,1.622779 -3.81,2.822224 -3.45723,2.116668 -4.23334,2.681113 -4.9389,3.880558 -1.05833,1.622779 -1.12888,3.739446 -1.05833,5.150556 0.0706,3.52778 1.55222,6.06779 3.88056,7.12612 0.77611,0.35278 2.54,0.56444 3.73945,-0.35278 1.905,-1.34056 2.18722,-2.46944 2.46944,-3.175 0,2.11667 1.41111,3.81 3.66889,3.66889 2.32834,-0.0706 2.96334,-1.55222 2.96334,-1.55222 z m -6.35,-3.38667 c 0,1.905 -1.12889,3.17501 -2.11667,3.95112 -0.70555,0.635 -1.83444,0.84666 -2.54,0.42333 -1.12889,-0.635 -1.19945,-2.18722 -1.19945,-3.66889 0,0 0,-2.04611 0,-3.951114 0,-2.116668 0.635,-5.080004 2.11667,-6.279449 1.83445,-1.481668 3.175,-2.187224 3.73945,-3.104446 v 3.598335 z"
         style="font-size:70.5556px;line-height:1.25;font-family:Ayres;-inkscape-font-specification:Ayres;word-spacing:0px;fill:#d40055;stroke:#ffffff;stroke-width:0.79375;stroke-miterlimit:4;stroke-dasharray:none"
         id="path898" />
      <path
         d="m 185.91379,84.419323 c -0.42333,-1.411112 -2.25778,-2.540002 -2.96333,-2.751668 0,0 0,0 0,0 -0.28223,-0.141112 -0.635,-0.211667 -0.98778,-0.282223 -0.49389,-0.07055 -1.48167,-0.141111 -2.04611,-0.141111 -1.19945,0 -2.18723,0.705556 -2.75167,1.693334 v -0.282222 c 0,-0.141111 0,-0.211667 0,-0.282222 0,-0.635001 -0.35278,-1.340557 -1.12889,-0.705556 -3.24556,2.610557 -4.23334,3.316113 -4.23334,3.316113 v 0.705556 c 0,0 0.635,-0.07056 0.91722,0 0.635,0.282222 0.56445,0.917223 0.56445,0.917223 v 0.705556 1.058334 14.957783 2.3989 c 0,0.98777 0.0706,1.69333 -1.55222,1.69333 v 1.12889 c 0,0 1.48166,0.14111 2.18722,-0.21167 0.70556,-0.35278 1.905,-0.35278 2.75167,0 0.77611,0.35278 1.69333,0.0706 2.18722,0.0706 v -1.05834 c -0.70555,0 -1.69333,-0.0705 -1.69333,-1.62277 0,0 0,-1.05834 0,-2.54001 v -8.325558 c 0,0 0,-4.445003 0,-9.94834 0,-0.141111 0.0705,-0.282222 0.0705,-0.352778 0.14111,-0.705556 0.42334,-1.340556 0.77611,-1.76389 0.77612,-0.776111 1.76389,-0.846667 2.25778,-0.846667 0.42334,0 1.48167,0.07056 2.11667,0.564445 0.28222,0.211667 0.35278,0.352778 0.42334,0.423333 0,0 0.49388,0.917223 -0.35278,1.340557 -0.84667,0.352778 -1.48167,0.705556 -1.48167,2.187224 0,0.846667 1.48167,2.187223 3.24556,1.552223 1.76389,-0.635001 2.04611,-2.187224 1.69333,-3.598336 z"
         style="font-size:70.5556px;line-height:1.25;font-family:Ayres;-inkscape-font-specification:Ayres;word-spacing:0px;fill:#ff7f2a;stroke:#ffffff;stroke-width:0.79375;stroke-miterlimit:4;stroke-dasharray:none"
         id="path900" />
      <path
         d="M 200.51871,105.65656 V 68.89709 c 0,-3.457224 0,-5.92667 0,-6.138337 0,-0.564445 -0.35278,-1.270001 -1.19945,-0.635 -3.175,2.540001 -4.16278,3.316113 -4.16278,3.316113 v 0.635 c 0,0 0.635,-0.07055 0.84667,0.07056 0.70556,0.211667 0.56445,0.917223 0.56445,0.917223 v 1.834445 c 0,3.951114 0,9.242784 0,14.040565 -0.56445,-0.987778 -1.55223,-1.693334 -2.68112,-1.693334 -0.0705,0 -0.14111,0 -0.14111,0 -0.0705,0 -0.0705,0 -0.14111,0 -4.16278,0 -5.715,2.610557 -6.27945,4.515559 -0.21167,0.635 -0.28222,1.128889 -0.28222,1.481667 v 15.310559 c 0,0 0.0705,3.45723 2.75167,5.29167 0.91722,0.70556 2.11667,1.12889 3.73944,1.12889 0,0 0.0706,0 0.0706,0 0.0706,0 0.14111,0 0.14111,0 1.83445,0 2.96334,-1.19944 3.59834,-2.68111 0.28222,0.56444 0.56444,0.98778 0.56444,1.05833 0.35278,0.42334 1.19945,0.98778 1.905,1.12889 0.77611,0.14111 2.18723,0 2.18723,0 v -1.05833 c -1.55223,0 -1.48167,-0.70556 -1.48167,-1.76389 z m -3.95111,-0.35278 c -0.0706,0.49389 -0.28223,1.34056 -0.91723,2.11667 -0.77611,0.635 -1.34055,0.84667 -1.83444,0.84667 -0.49389,0 -1.41112,-0.0706 -2.18723,-0.84667 -0.42333,-0.42333 -0.635,-1.05833 -0.77611,-1.69333 -0.0705,-0.42334 -0.0705,-0.84667 -0.0705,-1.19945 V 86.112658 c 0,0 -0.0706,-0.352778 -0.0706,-0.49389 0,-0.141111 0,-0.423333 0.0706,-0.705556 0.0705,-0.493889 0.28222,-1.340556 0.91722,-2.046112 0.77611,-0.705556 1.34056,-0.917223 1.83444,-0.917223 0.49389,0 1.41112,0.07056 2.18723,0.846667 0.42333,0.423334 0.70555,1.058334 0.84667,1.76389 0,0.07056 0,0.211667 0,0.352778 0,5.503337 0,9.94834 0,9.94834 v 9.736678 c 0,0 0,0 0,0 0,0 0,0 0,0 0.0705,0.0705 0.0705,0.0705 0.0705,0.0705 0,0 0,0 0,0 0,0.21167 0,0.42333 -0.0705,0.635 z"
         style="font-size:70.5556px;line-height:1.25;font-family:Ayres;-inkscape-font-specification:Ayres;word-spacing:0px;fill:#008066;stroke:#ffffff;stroke-width:0.79375;stroke-miterlimit:4;stroke-dasharray:none"
         id="path902" />
      <path
         d="m 217.31093,89.28766 h 3.59833 v -0.987779 h -3.59833 c 0,-10.089451 0,-26.599462 0,-27.163907 0,-0.987778 -0.84667,-0.917223 -1.05834,-0.423334 -1.48167,3.104447 -12.48834,28.57502 -12.48834,28.57502 h 9.59556 v 16.3689 c 0,1.05833 0.0706,1.83445 -1.55222,1.83445 v 1.05833 c 0,0 1.48167,0.14111 2.18722,-0.14111 0.70556,-0.35278 1.97556,-0.35278 2.82223,0 0.77611,0.35278 1.69333,0.14111 2.25778,0.14111 v -1.12889 c -0.77612,0 -1.76389,-0.0706 -1.76389,-1.76389 0,0 0,-6.843894 0,-11.006675 0,0 0,-2.116668 0,-5.362225 z m -11.9239,-0.987779 7.97278,-18.908901 v 18.626679 0.282222 z"
         style="font-size:70.5556px;line-height:1.25;font-family:Ayres;-inkscape-font-specification:Ayres;word-spacing:0px;fill:#2c2ca0;stroke:#ffffff;stroke-width:0.79375;stroke-miterlimit:4;stroke-dasharray:none"
         id="path904" />
    </g>
  </g>
</svg>
